<?xml version="1.0" encoding="utf-8"?>
<!-- Generator: Adobe Illustrator 26.5.2, SVG Export Plug-In . SVG Version: 6.00 Build 0)  -->
<svg version="1.1" xmlns="http://www.w3.org/2000/svg" xmlns:xlink="http://www.w3.org/1999/xlink" x="0px" y="0px"
	 viewBox="0 0 408 408" style="enable-background:new 0 0 408 408;" xml:space="preserve">
<style type="text/css">
	.st0{fill:none;stroke:#939393;stroke-width:5;stroke-miterlimit:10;}
	.st1{fill:#434343;}
	.st2{fill:none;stroke:#939393;stroke-width:3;stroke-miterlimit:10;}
	.st3{font-family:'ArialMT';}
	.st4{font-size:11px;}
	.st5{fill:#FFFFFF;}
	.st6{fill:#FAFAFC;}
</style>
<g id="Calque_1">
	<g>
		<line class="st0" x1="251.62" y1="75.87" x2="322.62" y2="127.64"/>
		<line class="st0" x1="293.7" y1="133.95" x2="324.73" y2="127.18"/>
		<line class="st0" x1="319.79" y1="98.17" x2="322.82" y2="129.72"/>
	</g>
	<g>
		<path class="st0" d="M81.6,126.46C106,109,129,92,152.5,74.93"/>
		<line class="st0" x1="149.8" y1="104.26" x2="152.88" y2="72.77"/>
		<line class="st0" x1="123.77" y1="68.44" x2="154.84" y2="75.28"/>
	</g>
	<g>
		<line class="st0" x1="350.95" y1="216.17" x2="324.13" y2="299.85"/>
		<line class="st0" x1="309.04" y1="274.38" x2="325.28" y2="301.78"/>
		<line class="st0" x1="351.21" y1="287.89" x2="322.17" y2="300.71"/>
	</g>
	<g>
		<line class="st0" x1="245.52" y1="358.36" x2="157.65" y2="358.18"/>
		<line class="st0" x1="177.34" y1="336.08" x2="156.2" y2="359.81"/>
		<line class="st0" x1="177.25" y1="380.36" x2="156.23" y2="356.57"/>
	</g>
	<g>
		<line class="st0" x1="80.2" y1="304.14" x2="53.12" y2="220.55"/>
		<line class="st0" x1="80.24" y1="232.42" x2="51.1" y2="219.66"/>
		<line class="st0" x1="38.12" y1="246.06" x2="54.23" y2="218.66"/>
	</g>
</g>
<g id="Calque_2">
	<g id="_x3C_Groupe_x3E__1_">
		<path id="Pierre_1_" class="st1" d="M291.91,375.88c0.35-2.32-0.47-3.65-2.71-5.09c-6.75-4.31-13.11-9.14-18.77-14.84
			c-3.83-3.85-3.89-9.26-0.25-13.33c1.82-2.03,3.35-1.93,5.21,0.61c-0.24-1.44-0.49-2.57-0.62-3.72c-0.32-2.89-0.76-5.79-0.84-8.69
			c-0.12-4.5,3.19-8.01,7.69-8.13c2.33-0.06,4.27-0.52,6.25-1.9c3.19-2.23,6.5-1.51,9.05,1.48c0.26,0.3,0.52,0.59,0.77,0.87
			c0.8-0.42,1.51-0.87,2.27-1.2c3.64-1.58,6.65-0.74,8.87,2.54c0.5,0.74,1.01,1.07,1.93,1.05c2.06-0.04,4.04,0.44,5.88,1.41
			c2.26,1.19,3.66,3.04,4.23,5.52c1.17,5.17,2.44,10.33,2.78,15.66c0.35,5.33,0.19,10.6-1.15,15.82c-0.58,2.27-0.84,4.62-1.27,7.04
			C311.54,372.6,301.79,374.23,291.91,375.88z"/>
		<path id="Papier_1_" class="st1" d="M369.04,162.06c0.57-1.73,1.15-3.45,1.72-5.18c1.26-3.87,2.28-7.83,4.41-11.35
			c0.8-1.32,1.44-1.58,2.89-1.27c1.79,0.38,2.72,1.72,2.35,3.53c-1.42,6.92-2.88,13.83-4.28,20.75c-0.26,1.28-0.43,2.6-0.42,3.91
			c0.07,8.24-1.08,16.32-2.98,24.32c-0.08,0.35-0.16,0.7-0.22,1.05c-0.09,0.59-0.38,0.84-1.03,0.88c-6.82,0.45-13.63,0.93-20.45,1.4
			c-1.68,0.12-1.79-0.24-2.14-1.78c-0.21-0.94-1.14-1.87-1.98-2.5c-1.56-1.17-3.3-2.09-4.94-3.17c-5.26-3.46-9.79-7.71-13.39-12.89
			c-0.67-0.96-1.07-2.12-1.54-3.21c-1.27-2.92-2.46-5.88-3.79-8.78c-1.21-2.64-0.1-5.43,2.66-6.03c0.73-0.16,1.82-0.06,2.33,0.39
			c1.78,1.57,3.5,3.25,5,5.09c1.22,1.5,2.08,3.3,3.13,4.96c0.23,0.36,0.49,0.76,0.84,0.96c1.36,0.81,2,0.45,2.1-1.12
			c0.22-3.64-0.52-7.14-1.59-10.6c-1.84-5.94-3.68-11.89-5.47-17.84c-0.26-0.86-0.35-1.81-0.35-2.71c0.01-2.79,2.2-4.26,4.84-3.36
			c1.77,0.6,2.64,1.94,3.2,3.61c1.43,4.36,2.82,8.73,4.37,13.05c0.74,2.05,1.79,4,2.76,5.96c0.24,0.48,0.75,0.83,1.14,1.25
			c0.12-0.05,0.24-0.1,0.36-0.15c0-1.57,0.13-3.15-0.02-4.7c-0.67-6.75-1.48-13.5-2.11-20.26c-0.12-1.34,0.06-2.82,0.54-4.07
			c0.64-1.68,2.09-2.28,3.67-2.01c1.86,0.32,3.23,1.48,3.49,3.15c0.45,2.8,0.76,5.62,1.2,8.42c0.85,5.44,1.74,10.87,2.65,16.31
			c0.11,0.67,0.41,1.31,0.62,1.97c0.16-0.01,0.31-0.01,0.47-0.02c0.37-2.02,0.85-4.02,1.09-6.06c0.63-5.35,1.14-10.72,1.71-16.08
			c0.29-2.7,1.18-3.68,3.48-3.89c2.23-0.2,3.94,1.61,3.85,4.3c-0.12,3.95-0.42,7.9-0.54,11.86c-0.11,3.6-0.1,7.19-0.12,10.79
			c0,0.37,0.11,0.74,0.17,1.11C368.83,162.04,368.93,162.05,369.04,162.06z"/>
		<path id="Spock_2_" class="st1" d="M30.11,143.77c-0.29-1.25-0.58-2.41-0.84-3.57c-0.61-2.68,0.61-4.87,3.07-5.51
			c2.4-0.62,4.62,0.78,5.28,3.44c1.52,6.08,2.98,12.16,4.48,18.25c0.12,0.48,0.3,0.95,0.45,1.43c0.12,0.02,0.25,0.03,0.37,0.05
			c0.15-0.39,0.36-0.76,0.43-1.16c1.36-8.07,2.7-16.14,4.07-24.2c0.4-2.38,2.41-3.97,4.64-3.76c2.6,0.25,4.23,2.04,4.21,4.62
			c0,0.43,0,0.86,0,1.28c0.76,0,1.44-0.08,2.1,0.01c2.42,0.34,3.93,2.42,3.8,5c-0.46,9.26-0.89,18.53-1.32,27.79
			c-0.01,0.23,0,0.47,0,0.92c0.52-0.26,0.9-0.43,1.26-0.63c1.85-1.04,3.67-2.11,5.53-3.11c3.37-1.81,8.12-0.63,10.3,2.49
			c0.57,0.81,0.36,1.5-0.27,2.14c-5.87,6.01-11.67,12.09-18.42,17.13c-1.38,1.03-2.04,2.22-2.01,3.8c0.04,2.07,0.15,4.14,0.41,6.19
			c0.19,1.56-0.19,2.21-1.78,2.22c-8.44,0.01-16.87,0.01-25.31,0c-1.63,0-2.14-0.72-1.73-2.31c0.86-3.32,1.81-6.61,2.55-9.96
			c0.56-2.52-0.05-5.01-0.79-7.43c-1.21-4-1.67-8.1-1.96-12.26c-0.23-3.33-0.94-6.63-1.47-9.93c-0.42-2.6-0.95-5.18-1.33-7.79
			c-0.42-2.85,0.96-4.58,3.82-4.97C29.77,143.92,29.87,143.86,30.11,143.77z"/>
		<path id="Lezard_1_" class="st1" d="M82.94,346.89c-1.8-1.37-3.78-1.31-5.28,0.15c-0.69,0.67-1.35,1.37-2.04,2.03
			c-1.22,1.17-2.42,1.34-3.41,0.52c-1-0.83-1.06-1.83-0.2-3.31c0.06-0.1,0.06-0.22,0.1-0.33c-1.97-0.36-2.83-1.06-2.84-2.32
			c-0.01-1.22,0.78-1.91,2.78-2.43c-0.9-1.89-0.84-2.83,0.25-3.62c1.05-0.77,2.27-0.46,3.66,0.92c0.11,0.11,0.23,0.22,0.34,0.34
			c1.47,1.63,3.06,2.74,5.47,2.85c2.59,0.12,4.83,1.54,6.77,3.31c0.28,0.25,0.65,0.54,0.99,0.56c3.02,0.16,6.05,0.28,9.07,0.39
			c3.77,0.14,7.42-0.35,10.76-2.26c0.24-0.14,0.45-0.31,0.76-0.51c-0.45-0.7-0.89-1.35-1.28-2.03c-1.19-2.04-1.74-4.27-1.92-6.61
			c-0.04-0.46-0.27-0.99-0.57-1.34c-0.86-0.99-1.84-1.89-2.72-2.87c-1.1-1.21-1.2-2.45-0.34-3.44c0.82-0.94,1.89-0.96,3.31-0.04
			c0.06,0.04,0.15,0.04,0.22,0.05c0.37-2.11,1.01-2.87,2.39-2.87c1.33,0.01,1.93,0.72,2.36,2.84c0.43-0.22,0.83-0.52,1.27-0.63
			c1.03-0.26,1.91,0.04,2.51,0.95c0.68,1.03,0.42,2.01-0.32,2.86c-0.87,0.99-1.8,1.93-2.76,2.84c-0.75,0.71-0.94,1.47-0.73,2.47
			c0.45,2.16,1.07,3.59,2.19,4.62c1.87-2.2,3.16-4.71,3.85-7.47c0.22-0.87-0.42-1.92-0.55-2.9c-0.58-4.41,0.69-8.29,3.51-11.68
			c2.42-2.91,5.3-5.22,8.93-6.43c5.53-1.84,9.85,0.54,11.18,6.21c1.12,4.76,0.68,9.46-1.18,13.98c-1.3,3.15-3.76,5.22-6.87,6.51
			c-0.84,0.35-1.34,0.81-1.63,1.7c-1.17,3.55-2.85,6.85-5.1,9.85c-0.16,0.22-0.28,0.47-0.44,0.73c1.63,1.51,3.58,2.13,5.69,2.25
			c0.33,0.02,0.74-0.26,1.01-0.51c0.94-0.87,1.84-1.78,2.75-2.67c1.2-1.17,2.38-1.36,3.4-0.55c1.02,0.8,1.08,1.89,0.19,3.4
			c-0.03,0.06-0.01,0.15-0.02,0.22c2.1,0.52,2.74,1.08,2.73,2.38c-0.01,1.29-0.62,1.84-2.77,2.4c0.14,0.24,0.27,0.46,0.38,0.68
			c0.54,1.02,0.36,2.15-0.43,2.84c-0.82,0.71-2.1,0.76-2.96-0.01c-1.04-0.93-1.96-2-3.02-2.91c-0.48-0.41-1.15-0.78-1.75-0.81
			c-2.89-0.17-5.44-1.13-7.75-2.86c-0.26-0.19-0.9-0.27-1.1-0.09c-4.93,4.19-10.69,6.27-17.04,6.95c-0.11,0.01-0.21,0.09-0.25,0.1
			c0.16,1.7,0.62,3.4,0.39,5c-0.32,2.26,0.32,4.03,1.65,5.71c0.34,0.44,0.63,0.93,0.89,1.42c0.67,1.23,0.41,2.42-0.66,3.17
			c-0.96,0.68-2.06,0.51-3-0.46c-0.11-0.11-0.21-0.23-0.42-0.46c-0.54,1.55-1.31,2.79-3.17,2.29c-1.22-0.33-1.64-1.26-1.59-3.25
			c-0.2,0.06-0.38,0.12-0.56,0.18c-1.28,0.45-2.39,0.08-2.97-1c-0.57-1.07-0.29-2.24,0.84-3.04c1.14-0.81,2.37-1.49,3.49-2.32
			c0.43-0.32,0.83-0.88,0.93-1.39c0.34-1.77,0.04-3.5-0.72-5.13c-0.12-0.25-0.41-0.59-0.63-0.6c-3.49-0.12-6.95-1.16-10.49-0.34
			c-2.93,0.68-5.09,2.41-6.83,4.75c-3.21,4.3-4.86,9.22-5.74,14.44c-0.19,1.14-0.73,1.93-1.91,2.17c-1.08,0.23-1.88-0.23-2.41-1.14
			c-3.76-6.45-5.41-13.24-2.85-20.52c2.16-6.15,6.61-10.24,12.39-12.99c0.54-0.26,1.11-0.46,1.66-0.69
			C82.85,347.02,82.89,346.95,82.94,346.89z"/>
		<path id="Ciseaux_2_" class="st1" d="M195.2,39.8c-0.83,1.17-1.52,2.14-2.21,3.1c-1.49,2.08-2.98,4.16-4.46,6.24
			c-1.03,1.44-1.05,2.4-0.05,3.12c0.91,0.66,1.88,0.31,2.86-1.05c7.21-10.03,14.42-20.06,21.64-30.09c0.8-1.11,1.69-2.09,3.26-1.66
			c1.96,0.54,2.71,2.36,1.62,4.14c-1.61,2.62-3.32,5.18-4.98,7.77c-3.31,5.14-6.64,10.27-9.93,15.43c-0.34,0.54-0.68,1.26-0.61,1.85
			c0.17,1.44,1.85,1.83,3.08,0.75c2.4-2.11,4.77-4.26,7.16-6.4c4.71-4.22,9.41-8.43,14.12-12.65c1.1-0.98,2.29-1.44,3.72-0.75
			c1.27,0.62,2.09,1.83,1.8,3.2c-0.18,0.83-0.72,1.7-1.35,2.28c-6.28,5.81-12.62,11.56-18.93,17.33c-0.62,0.57-1.26,1.11-1.84,1.72
			c-0.8,0.84-0.85,1.77-0.15,2.45c0.76,0.74,1.62,0.84,2.47,0.15c1.02-0.83,2.02-1.7,3.02-2.56c1.54-1.3,2.99-1.32,4.24-0.06
			c1.29,1.3,1.36,3.26,0.07,4.64c-1.36,1.46-2.81,2.85-4.22,4.27c-0.25,0.26-0.52,0.5-0.75,0.78c-0.71,0.87-0.73,1.78-0.02,2.47
			c0.75,0.73,1.52,0.59,2.4,0.13c0.85-0.45,1.78-0.9,2.71-1.01c1.32-0.15,2.24,0.72,2.86,1.83c0.6,1.06,0.41,2.14-0.31,3.03
			c-0.88,1.08-1.85,2.11-2.88,3.04c-7.03,6.4-15,11.12-24.3,13.39c-1.51,0.37-3.04,0.66-4.58,0.86c-0.46,0.06-1.12-0.16-1.46-0.49
			c-5.64-5.56-11.25-11.15-16.83-16.77c-0.31-0.31-0.57-0.93-0.49-1.34c1.33-7.17,3.2-14.18,6.9-20.56c2.03-3.5,4.62-6.41,8.54-7.88
			C189.8,39.6,192.32,39.56,195.2,39.8z"/>
	</g>
</g>
<g id="Calque_3">
	<g>
		<line class="st2" x1="284.3" y1="155.61" x2="124.58" y2="155.28"/>
		<line class="st2" x1="137.89" y1="140.34" x2="123.76" y2="156.2"/>
		<line class="st2" x1="137.9" y1="170.34" x2="123.68" y2="154.26"/>
	</g>
	<g>
		<line class="st2" x1="117.18" y1="202.43" x2="246.71" y2="295.86"/>
		<line class="st2" x1="227.19" y1="300.23" x2="247.99" y2="295.58"/>
		<line class="st2" x1="244.68" y1="275.86" x2="246.83" y2="297.09"/>
	</g>
	<g>
		<line class="st2" x1="160.96" y1="296.4" x2="292.13" y2="201.09"/>
		<line class="st2" x1="290.18" y1="221.26" x2="292.25" y2="199.85"/>
		<line class="st2" x1="272.16" y1="196.74" x2="293.41" y2="201.37"/>
	</g>
	<g>
		<line class="st2" x1="277.33" y1="273.36" x2="228.73" y2="121.22"/>
		<line class="st2" x1="247.02" y1="129.31" x2="227.52" y2="120.68"/>
		<line class="st2" x1="218.47" y1="138.51" x2="229.39" y2="120.11"/>
	</g>
	<g>
		<line class="st2" x1="180.52" y1="120.49" x2="130.27" y2="272.09"/>
		<line class="st2" x1="148.64" y1="264.19" x2="129.02" y2="272.63"/>
		<line class="st2" x1="120.19" y1="254.69" x2="130.92" y2="273.22"/>
	</g>
</g>
<g id="Calque_4">
	<text transform="matrix(1 0 0 1 188.1832 150.8767)" class="st1 st3 st4">Réfute</text>
	<text transform="matrix(0.811 0.585 -0.585 0.811 151.362 242.075)" class="st1 st3 st4">Vaporise</text>
	<text transform="matrix(0.3043 0.9526 -0.9526 0.3043 249.2732 173.4876)" class="st1 st3 st4">Ecrase</text>
	<text transform="matrix(0.3147 -0.9492 0.9492 0.3147 144.2826 215.0061)" class="st1 st3 st4">Décapitent</text>
	<text transform="matrix(0.809 -0.5878 0.5878 0.809 227.6767 262.5732)" class="st1 st3 st4">Mange</text>
</g>
<g id="Calque_5">
	<text transform="matrix(0.809 -0.5879 0.5879 0.809 96.8174 108.3386)" class="st1 st3 st4">Casse</text>
	<text transform="matrix(0.808 0.5892 -0.5892 0.808 272.5458 81.532)" class="st1 st3 st4">Coupent</text>
	<text transform="matrix(0.3052 -0.9523 0.9523 0.3052 345.6646 277.9007)" class="st1 st3 st4">Enveloppe</text>
	<text transform="matrix(1 0 0 1 189.0948 372.2952)" class="st1 st3 st4">Ecrase</text>
	<text transform="matrix(0.3081 0.9513 -0.9513 0.3081 48.003 246.7886)" class="st1 st3 st4">Empoisonne</text>
</g>
<g id="Calque_6">
	<text transform="matrix(1 0 0 1 32.6992 177.2719)" class="st5 st3 st4">Spock</text>
	<text transform="matrix(1 0 0 1 175.8788 74.1865)" class="st5 st3 st4">Ciseaux</text>
	<text transform="matrix(1 0 0 1 338.6724 185.08)" class="st5 st3 st4">Papier</text>
	<text transform="matrix(1 0 0 1 285.1465 353.4547)" class="st6 st3 st4">Pierre</text>
	<text transform="matrix(1 0 0 1 82.8263 356.5748)" class="st5 st3 st4">Lézard</text>
</g>
</svg>
